<svg width="960" height="1240" viewBox="0 0 960 1240" fill="none" xmlns="http://www.w3.org/2000/svg">
  <rect width="960" height="1240" rx="80" fill="#F4EEE6"/>
  <rect x="36" y="36" width="888" height="1168" rx="56" fill="url(#paint0_linear_1_2)"/>
  <ellipse cx="750" cy="250" rx="220" ry="180" fill="#E8CEC4" fill-opacity="0.55"/>
  <ellipse cx="220" cy="1020" rx="280" ry="180" fill="#E6D7C4" fill-opacity="0.85"/>
  <path d="M198 842C198 671.661 336.661 533 507 533C677.339 533 816 671.661 816 842V935H198V842Z" fill="#D7B991" fill-opacity="0.55"/>
  <rect x="248" y="340" width="460" height="436" rx="230" fill="#FFF9F4" fill-opacity="0.76"/>
  <path d="M316 935H680V685C680 583.38 597.62 501 496 501C394.38 501 312 583.38 312 685V935H316Z" fill="#8C8E77" fill-opacity="0.48"/>
  <path d="M388 935H604V717C604 657.353 555.647 609 496 609C436.353 609 388 657.353 388 717V935Z" fill="#FDF7F0" fill-opacity="0.92"/>
  <rect x="120" y="112" width="200" height="18" rx="9" fill="#FFF9F4" fill-opacity="0.8"/>
  <rect x="120" y="146" width="128" height="12" rx="6" fill="#FFF9F4" fill-opacity="0.58"/>
  <defs>
    <linearGradient id="paint0_linear_1_2" x1="140" y1="60" x2="812" y2="1174" gradientUnits="userSpaceOnUse">
      <stop stop-color="#FBF7F1"/>
      <stop offset="1" stop-color="#F1E7DB"/>
    </linearGradient>
  </defs>
</svg>
